<?xml version="1.0" encoding="utf-8"?>
<svg version="1.1" id="Layer_1" xmlns="http://www.w3.org/2000/svg" xmlns:xlink="http://www.w3.org/1999/xlink" x="0px" y="0px"
	 viewBox="0 0 2560 1600" enable-background="new 0 0 2560 1600" xml:space="preserve">
<pattern  width="143" height="144" patternUnits="userSpaceOnUse" id="New_Pattern_2" viewBox="17.017 -161.517 143 144" overflow="visible">
	<g>
		<rect x="17.017" y="-161.517" fill="none" width="143" height="144"/>
		<g>
			<g>
				<g>
					
						<line fill="none" stroke="#000000" stroke-width="3" stroke-linecap="round" stroke-miterlimit="10" x1="160.806" y1="-16.227" x2="175.533" y2="-1.5"/>
				</g>
			</g>
		</g>
		<g>
			<g>
				<g>
					
						<line fill="none" stroke="#000000" stroke-width="3" stroke-linecap="round" stroke-miterlimit="10" x1="144.5" y1="-1.5" x2="159.227" y2="-16.227"/>
					
						<line fill="none" stroke="#000000" stroke-width="3" stroke-linecap="round" stroke-miterlimit="10" x1="88.517" y1="-16.227" x2="103.244" y2="-1.5"/>
				</g>
			</g>
			<g>
				<g>
					
						<line fill="none" stroke="#000000" stroke-width="3" stroke-linecap="round" stroke-miterlimit="10" x1="17.806" y1="-16.227" x2="32.533" y2="-1.5"/>
					
						<line fill="none" stroke="#000000" stroke-width="3" stroke-linecap="round" stroke-miterlimit="10" x1="88.517" y1="-16.227" x2="73.789" y2="-1.5"/>
				</g>
			</g>
		</g>
		<g>
			<g>
				<g>
					
						<line fill="none" stroke="#000000" stroke-width="3" stroke-linecap="round" stroke-miterlimit="10" x1="1.5" y1="-1.5" x2="16.227" y2="-16.227"/>
				</g>
			</g>
		</g>
		<g>
			<g>
				<g>
					
						<line fill="none" stroke="#000000" stroke-width="3" stroke-linecap="round" stroke-miterlimit="10" x1="160.806" y1="-18.806" x2="175.533" y2="-33.533"/>
					
						<line fill="none" stroke="#000000" stroke-width="3" stroke-linecap="round" stroke-miterlimit="10" x1="160.806" y1="-89.517" x2="175.533" y2="-74.789"/>
				</g>
			</g>
			<g>
				<g>
					
						<line fill="none" stroke="#000000" stroke-width="3" stroke-linecap="round" stroke-miterlimit="10" x1="160.806" y1="-160.227" x2="175.533" y2="-145.5"/>
					
						<line fill="none" stroke="#000000" stroke-width="3" stroke-linecap="round" stroke-miterlimit="10" x1="175.533" y1="-104.244" x2="160.806" y2="-89.517"/>
				</g>
			</g>
		</g>
		<g>
			<g>
				<g>
					<path fill="none" stroke="#000000" stroke-width="3" stroke-linecap="round" stroke-miterlimit="10" d="M103.244-104.244
						L103.244-104.244c11.392-11.393,11.392-29.863,0-41.256l0,0c11.392,11.392,29.863,11.392,41.256,0l0,0
						c-11.393,11.393-11.393,29.863,0,41.256l0,0C133.107-115.637,114.637-115.637,103.244-104.244z"/>
					
						<line fill="none" stroke="#000000" stroke-width="3" stroke-linecap="round" stroke-miterlimit="10" x1="144.5" y1="-145.5" x2="159.227" y2="-160.227"/>
					
						<line fill="none" stroke="#000000" stroke-width="3" stroke-linecap="round" stroke-miterlimit="10" x1="88.517" y1="-89.517" x2="103.244" y2="-104.244"/>
					
						<line fill="none" stroke="#000000" stroke-width="3" stroke-linecap="round" stroke-miterlimit="10" x1="88.517" y1="-160.227" x2="103.244" y2="-145.5"/>
					
						<line fill="none" stroke="#000000" stroke-width="3" stroke-linecap="round" stroke-miterlimit="10" x1="144.5" y1="-104.244" x2="159.227" y2="-89.517"/>
				</g>
				<g>
					<path fill="none" stroke="#000000" stroke-width="3" stroke-linecap="round" stroke-miterlimit="10" d="M32.533-33.533
						L32.533-33.533c11.392-11.393,11.392-29.863,0-41.256l0,0c11.392,11.392,29.863,11.392,41.256,0l0,0
						c-11.392,11.392-11.392,29.863,0,41.256l0,0C62.397-44.926,43.926-44.926,32.533-33.533z"/>
					
						<line fill="none" stroke="#000000" stroke-width="3" stroke-linecap="round" stroke-miterlimit="10" x1="73.789" y1="-74.789" x2="88.517" y2="-89.517"/>
					
						<line fill="none" stroke="#000000" stroke-width="3" stroke-linecap="round" stroke-miterlimit="10" x1="17.806" y1="-18.806" x2="32.533" y2="-33.533"/>
					
						<line fill="none" stroke="#000000" stroke-width="3" stroke-linecap="round" stroke-miterlimit="10" x1="17.806" y1="-89.517" x2="32.533" y2="-74.789"/>
					
						<line fill="none" stroke="#000000" stroke-width="3" stroke-linecap="round" stroke-miterlimit="10" x1="73.789" y1="-33.533" x2="88.517" y2="-18.806"/>
				</g>
			</g>
			<g>
				<g>
					<path fill="none" stroke="#000000" stroke-width="3" stroke-linecap="round" stroke-miterlimit="10" d="M103.244-74.789
						L103.244-74.789c11.393,11.392,29.863,11.392,41.256,0l0,0c-11.393,11.392-11.393,29.863,0,41.256l0,0
						c-11.393-11.392-29.863-11.392-41.256,0l0,0C114.637-44.926,114.637-63.397,103.244-74.789z"/>
					
						<line fill="none" stroke="#000000" stroke-width="3" stroke-linecap="round" stroke-miterlimit="10" x1="144.5" y1="-33.533" x2="159.227" y2="-18.806"/>
					
						<line fill="none" stroke="#000000" stroke-width="3" stroke-linecap="round" stroke-miterlimit="10" x1="88.517" y1="-89.517" x2="103.244" y2="-74.789"/>
					
						<line fill="none" stroke="#000000" stroke-width="3" stroke-linecap="round" stroke-miterlimit="10" x1="159.227" y1="-89.517" x2="144.5" y2="-74.789"/>
					
						<line fill="none" stroke="#000000" stroke-width="3" stroke-linecap="round" stroke-miterlimit="10" x1="103.244" y1="-33.533" x2="88.517" y2="-18.806"/>
				</g>
				<g>
					<path fill="none" stroke="#000000" stroke-width="3" stroke-linecap="round" stroke-miterlimit="10" d="M32.533-145.5
						L32.533-145.5c11.393,11.392,29.863,11.392,41.256,0l0,0c-11.392,11.393-11.392,29.863,0,41.256l0,0
						c-11.392-11.393-29.863-11.393-41.256,0l0,0C43.926-115.637,43.926-134.107,32.533-145.5z"/>
					
						<line fill="none" stroke="#000000" stroke-width="3" stroke-linecap="round" stroke-miterlimit="10" x1="73.789" y1="-104.244" x2="88.517" y2="-89.517"/>
					
						<line fill="none" stroke="#000000" stroke-width="3" stroke-linecap="round" stroke-miterlimit="10" x1="17.806" y1="-160.227" x2="32.533" y2="-145.5"/>
					
						<line fill="none" stroke="#000000" stroke-width="3" stroke-linecap="round" stroke-miterlimit="10" x1="88.517" y1="-160.227" x2="73.789" y2="-145.5"/>
					
						<line fill="none" stroke="#000000" stroke-width="3" stroke-linecap="round" stroke-miterlimit="10" x1="32.533" y1="-104.244" x2="17.806" y2="-89.517"/>
				</g>
			</g>
		</g>
		<g>
			<g>
				<g>
					
						<line fill="none" stroke="#000000" stroke-width="3" stroke-linecap="round" stroke-miterlimit="10" x1="1.5" y1="-145.5" x2="16.227" y2="-160.227"/>
					
						<line fill="none" stroke="#000000" stroke-width="3" stroke-linecap="round" stroke-miterlimit="10" x1="1.5" y1="-104.244" x2="16.227" y2="-89.517"/>
				</g>
			</g>
			<g>
				<g>
					
						<line fill="none" stroke="#000000" stroke-width="3" stroke-linecap="round" stroke-miterlimit="10" x1="1.5" y1="-33.533" x2="16.227" y2="-18.806"/>
					
						<line fill="none" stroke="#000000" stroke-width="3" stroke-linecap="round" stroke-miterlimit="10" x1="16.227" y1="-89.517" x2="1.5" y2="-74.789"/>
				</g>
			</g>
		</g>
		<g>
			<g>
				<g>
					
						<line fill="none" stroke="#000000" stroke-width="3" stroke-linecap="round" stroke-miterlimit="10" x1="160.806" y1="-162.806" x2="175.533" y2="-177.533"/>
				</g>
			</g>
		</g>
		<g>
			<g>
				<g>
					
						<line fill="none" stroke="#000000" stroke-width="3" stroke-linecap="round" stroke-miterlimit="10" x1="17.806" y1="-162.806" x2="32.533" y2="-177.533"/>
					
						<line fill="none" stroke="#000000" stroke-width="3" stroke-linecap="round" stroke-miterlimit="10" x1="73.789" y1="-177.533" x2="88.517" y2="-162.806"/>
				</g>
			</g>
			<g>
				<g>
					
						<line fill="none" stroke="#000000" stroke-width="3" stroke-linecap="round" stroke-miterlimit="10" x1="144.5" y1="-177.533" x2="159.227" y2="-162.806"/>
					
						<line fill="none" stroke="#000000" stroke-width="3" stroke-linecap="round" stroke-miterlimit="10" x1="103.244" y1="-177.533" x2="88.517" y2="-162.806"/>
				</g>
			</g>
		</g>
		<g>
			<g>
				<g>
					
						<line fill="none" stroke="#000000" stroke-width="3" stroke-linecap="round" stroke-miterlimit="10" x1="1.5" y1="-177.533" x2="16.227" y2="-162.806"/>
				</g>
			</g>
		</g>
	</g>
</pattern>
<rect fill="url(#New_Pattern_2)" width="2560" height="1600"/>
</svg>
